<svg width="771" height="786" viewBox="0 0 771 786" fill="none" xmlns="http://www.w3.org/2000/svg">
<rect width="771" height="786" fill="white"/>
<path d="M427.817 394.923L464.079 453.277C466.28 456.818 471.593 456.269 473.023 452.353L511.46 347.075C511.46 347.075 520.125 321.523 516.694 315.159C513.264 308.796 486.957 301.624 486.957 301.624C475.143 297.829 408.043 279.155 381.366 271.752C377.17 270.588 373.644 274.986 375.632 278.861L403.428 333.057C404.119 334.404 405.365 335.361 406.846 335.674C416.562 337.724 453.478 345.675 454.967 348.437C456.41 351.114 434.925 380.116 428.067 389.257C426.823 390.915 426.723 393.163 427.817 394.923Z" fill="url(#paint0_linear_114_2)"/>
<path d="M527.89 337.844C528.447 340.378 539.752 360.598 540.911 361.997C542.071 363.396 546.053 363.273 547.114 361.487C547.864 360.224 561.539 308.135 561.539 308.135C561.539 308.135 565.81 295.539 564.119 292.403C562.428 289.266 549.461 285.731 549.461 285.731C549.461 285.731 498.466 269.138 497.228 268.953C495.466 268.688 493.15 271.151 492.716 272.599C492.282 274.048 506.076 297.38 507.09 299.262C508.105 301.144 532.847 307.238 533.692 308.806C534.538 310.374 527.334 335.31 527.89 337.844Z" fill="url(#paint1_linear_114_2)"/>
<path d="M460.577 179.196L494.577 238.727C496.473 242.047 494.146 246.18 490.322 246.207L383.286 246.936C376.272 246.984 363.063 246.248 355.672 251.663C348.282 257.077 343.802 265.773 341.357 270.329C339.292 274.178 323.248 301.688 318.322 310.127C317.432 311.652 315.806 312.591 314.041 312.603L245.613 313.069C241.739 313.095 239.294 308.917 241.24 305.568C249.846 290.755 268.478 258.585 273.134 249.75C279.244 238.155 299.15 192.218 322.197 183.395C345.244 174.573 369.197 177.711 393.538 177.132C414.017 176.646 446.472 176.661 456.258 176.679C458.047 176.682 459.69 177.643 460.577 179.196Z" fill="url(#paint2_linear_114_2)"/>
<path d="M456.371 454.484L419.587 394.752C418.671 393.264 417.055 392.362 415.308 392.374L384.277 392.586C377.263 392.634 364.065 393.549 356.602 388.235C349.138 382.922 344.541 374.288 342.034 369.767C339.916 365.946 323.499 338.657 318.458 330.285C317.548 328.773 315.909 327.857 314.144 327.869L245.716 328.335C241.842 328.361 239.455 332.572 241.446 335.895C250.252 350.589 269.321 382.502 274.098 391.273C280.365 402.784 300.895 448.445 324.06 456.953C347.225 465.46 371.134 461.996 395.48 462.243C412.834 462.419 438.736 462.221 452.184 462.092C456.07 462.055 458.409 457.792 456.371 454.484Z" fill="url(#paint3_linear_114_2)"/>
<defs>
<linearGradient id="paint0_linear_114_2" x1="467.921" y1="346.993" x2="210.502" y2="443.506" gradientUnits="userSpaceOnUse">
<stop stop-color="#8C5BFF"/>
<stop offset="1" stop-color="#571EA7"/>
</linearGradient>
<linearGradient id="paint1_linear_114_2" x1="540.832" y1="304.87" x2="396.5" y2="372.501" gradientUnits="userSpaceOnUse">
<stop stop-color="#8C5BFF"/>
<stop offset="1" stop-color="#571EA7"/>
</linearGradient>
<linearGradient id="paint2_linear_114_2" x1="380.966" y1="224.258" x2="437" y2="410.001" gradientUnits="userSpaceOnUse">
<stop stop-color="#8C5BFF"/>
<stop offset="1" stop-color="#571EA7"/>
</linearGradient>
<linearGradient id="paint3_linear_114_2" x1="337.037" y1="405.409" x2="456" y2="214.001" gradientUnits="userSpaceOnUse">
<stop stop-color="#8C5BFF"/>
<stop offset="1" stop-color="#571EA7"/>
</linearGradient>
</defs>
</svg>
